<svg width="456" height="456" viewBox="0 0 456 456" fill="none" xmlns="http://www.w3.org/2000/svg">
    <rect width="456" height="456" rx="80" fill="#1E88E5"/>
    <path d="M228 96C162 96 108 150 108 216V300C108 366 162 420 228 420C294 420 348 366 348 300V216C348 150 294 96 228 96Z" fill="#E3F2FD"/>
    <path d="M228 120C177 120 135 162 135 213V285C135 336 177 378 228 378C279 378 321 336 321 285V213C321 162 279 120 228 120Z" fill="#00BCD4"/>
    <circle cx="200" cy="180" r="12" fill="#B3E5FC"/>
    <circle cx="256" cy="200" r="8" fill="#B3E5FC"/>
    <circle cx="220" cy="240" r="6" fill="#B3E5FC"/>
</svg>